<svg width="12" height="18" viewBox="0 0 12 18" fill="none" xmlns="http://www.w3.org/2000/svg">
<g clip-path="url(#clip0_45_7)">
<path d="M5.71533 12.2963L11.4243 18.0001L11.4292 6.54297L5.71533 12.2963Z" fill="#264FFA"/>
<path d="M0.00195312 6.54297L0.00671146 18.0001L5.7158 12.2963L0.00195312 6.54297Z" fill="#FC5757"/>
<path d="M11.4289 5.68249C11.423 4.15815 10.822 2.72709 9.73823 1.65398C8.95862 0.882797 7.99681 0.362073 6.9506 0.132677C6.95083 0.132755 6.95037 0.132599 6.9506 0.132677C6.90723 0.123161 6.86317 0.114113 6.81957 0.105611C6.81387 0.104519 6.8081 0.103427 6.80233 0.102335C6.76403 0.0950033 6.72558 0.0880615 6.68704 0.0815095C6.67636 0.0797155 6.6656 0.0779995 6.65491 0.0762055C6.62106 0.0706676 6.58713 0.0653637 6.55312 0.0603717C6.53807 0.0581877 6.52301 0.0561596 6.50796 0.0540536C6.47785 0.0499197 6.44774 0.0459416 6.41756 0.0422757C6.39899 0.0400137 6.38035 0.0379856 6.36179 0.0358797C6.33472 0.0328377 6.30766 0.029952 6.28051 0.0273C6.25914 0.025194 6.23769 0.0233999 6.21624 0.0215279C6.19144 0.0194219 6.16671 0.017316 6.14183 0.015522C6.11851 0.013806 6.09511 0.0123239 6.07171 0.0109199C6.04831 0.00951588 6.02483 0.00811199 6.00135 0.006942C5.9771 0.00577201 5.95276 0.00483616 5.92842 0.00397816C5.90541 0.00312017 5.8824 0.00234019 5.85931 0.00179419C5.83498 0.0011702 5.81057 0.00085799 5.78615 0.00054599C5.76267 0.000234 5.73912 0 5.71564 0C5.69209 0 5.66861 0.000234 5.64513 0.000546C5.62071 0.000858 5.5963 0.0011702 5.57197 0.00179419C5.54888 0.00234019 5.52587 0.00319817 5.50286 0.00397816C5.47852 0.00483616 5.45427 0.00577201 5.42993 0.006942C5.40645 0.00811199 5.38297 0.00951588 5.35957 0.0109199C5.33617 0.0123239 5.31277 0.013806 5.28945 0.015522C5.26465 0.017316 5.23985 0.0194219 5.21504 0.0215279C5.19359 0.0233999 5.17214 0.025194 5.15077 0.0273C5.12363 0.029952 5.09656 0.0328377 5.06942 0.0358797C5.05085 0.0379856 5.03221 0.0400137 5.01365 0.0422757C4.98346 0.0459416 4.95328 0.0499197 4.92317 0.0540536C4.90811 0.0561596 4.89306 0.0581877 4.87801 0.0603717C4.844 0.0653637 4.81007 0.0706676 4.77622 0.0762055C4.76545 0.0779995 4.75477 0.0797155 4.74408 0.0815095C4.70555 0.0880615 4.66709 0.0950033 4.6288 0.102335C4.62302 0.103427 4.61725 0.104519 4.61156 0.105611C4.56796 0.114113 4.52451 0.123005 4.48115 0.132521C4.48139 0.132443 4.48091 0.132599 4.48115 0.132521C3.43495 0.361839 2.4725 0.882719 1.6929 1.65398C0.609098 2.72702 0.00811193 4.15815 0.00218397 5.68249L0 6.15064L0.00171623 6.5429L5.71556 12.2962L11.4294 6.5429L11.4311 6.15088L11.4289 5.68249Z" fill="#FFC200"/>
</g>
<defs>
<clipPath id="clip0_45_7">
<rect width="12" height="18" fill="white"/>
</clipPath>
</defs>
</svg>
